<svg width="28" height="33" viewBox="0 0 28 33" fill="none" xmlns="http://www.w3.org/2000/svg">
<path d="M3.196 6.936C2.788 6.648 2.584 6.192 2.584 5.568C2.584 5.448 2.608 5.244 2.656 4.956C2.824 4.236 3.148 3.564 3.628 2.94C4.132 2.292 4.708 1.776 5.356 1.392C5.86 1.104 6.364 0.959998 6.868 0.959998C7.396 0.959998 7.804 1.14 8.092 1.5C8.308 1.788 8.416 2.136 8.416 2.544C8.416 2.904 8.308 3.36 8.092 3.912C7.852 4.584 7.48 5.196 6.976 5.748C6.496 6.3 5.944 6.72 5.32 7.008C4.816 7.248 4.372 7.332 3.988 7.26C3.628 7.212 3.364 7.104 3.196 6.936ZM6.256 27.708C6.256 27.876 6.22 28.068 6.148 28.284C6.1 28.5 6.064 28.656 6.04 28.752L5.968 28.968C5.728 29.856 5.296 30.696 4.672 31.488C4.048 32.28 3.268 32.676 2.332 32.676C2.236 32.676 2.164 32.664 2.116 32.64C1.732 32.592 1.42 32.448 1.18 32.208C0.82 31.776 0.64 31.104 0.64 30.192C0.64 29.856 0.664 29.472 0.712 29.04C0.688 28.968 0.688 28.896 0.712 28.824C0.712 28.728 0.712 28.668 0.712 28.644C0.784 26.94 1.036 24.624 1.468 21.696L1.612 20.58C1.852 18.948 2.008 17.724 2.08 16.908L2.224 15.288C2.224 15.12 2.236 14.988 2.26 14.892C2.308 14.556 2.32 14.34 2.296 14.244C2.272 14.22 2.26 14.196 2.26 14.172C2.26 14.124 2.248 14.088 2.224 14.064C2.08 13.872 2.008 13.62 2.008 13.308C2.008 12.924 2.044 12.54 2.116 12.156C2.14 12.084 2.152 11.964 2.152 11.796C2.32 10.692 2.788 9.744 3.556 8.952C4.348 8.16 5.092 7.764 5.788 7.764C6.052 7.764 6.304 7.824 6.544 7.944C7.144 8.256 7.444 8.916 7.444 9.924C7.396 10.596 7.372 11.1 7.372 11.436L7.336 12.372L7.228 14.352C7.204 15.6 7.132 16.872 7.012 18.168C6.988 18.648 6.844 20.232 6.58 22.92L6.472 24.036L6.4 24.756L6.184 26.736C6.16 26.832 6.148 26.916 6.148 26.988C6.172 27.036 6.184 27.096 6.184 27.168C6.232 27.288 6.244 27.384 6.22 27.456L6.256 27.708ZM27.1599 3.768C27.6879 3.792 27.9519 4.056 27.9519 4.56C27.9519 4.968 27.8199 5.436 27.5559 5.964C27.2919 6.492 27.0279 6.912 26.7639 7.224C26.2599 7.848 25.6839 8.268 25.0359 8.484C24.3879 8.7 23.6439 8.808 22.8039 8.808C22.5159 8.808 22.0599 8.784 21.4359 8.736C20.6679 8.688 20.0919 8.676 19.7079 8.7C19.5159 8.7 19.2879 8.7 19.0239 8.7C18.7839 8.7 18.6159 8.748 18.5199 8.844C18.4479 8.94 18.3519 9.156 18.2319 9.492C18.1599 9.732 18.1119 10.044 18.0879 10.428C18.0879 10.812 18.0879 11.088 18.0879 11.256L17.8359 15.252C17.7639 16.644 17.7159 17.868 17.6919 18.924C17.6679 19.956 17.6439 20.82 17.6199 21.516C17.6199 22.452 17.6079 23.148 17.5839 23.604C17.7759 23.556 17.9079 23.532 17.9799 23.532C18.5079 23.532 18.7719 23.94 18.7719 24.756C18.7719 25.332 18.6759 25.944 18.4839 26.592C18.3159 27.24 18.0999 27.96 17.8359 28.752C17.6919 29.16 17.3799 29.712 16.8999 30.408C16.4439 31.08 15.9279 31.668 15.3519 32.172C14.7759 32.676 14.2719 32.928 13.8399 32.928C13.2879 32.928 12.9159 32.496 12.7239 31.632C12.5319 30.792 12.4359 29.784 12.4359 28.608C12.4359 27.288 12.5679 25.62 12.8319 23.604L13.0839 21.012C13.4439 16.332 13.8879 12.516 14.4159 9.564C14.2719 9.612 13.8759 9.744 13.2279 9.96C12.6039 10.152 12.0279 10.38 11.4999 10.644C10.9719 10.908 10.5639 11.184 10.2759 11.472C9.96391 11.808 9.68791 12.24 9.44791 12.768C9.13591 13.296 8.85991 13.704 8.61991 13.992C8.40391 14.28 8.07991 14.508 7.64791 14.676C7.38391 14.796 7.11991 14.856 6.85591 14.856C6.35191 14.856 6.09991 14.544 6.09991 13.92C6.09991 13.512 6.19591 13.032 6.38791 12.48C6.57991 11.928 6.78391 11.484 6.99991 11.148C8.60791 8.508 11.0799 6.612 14.4159 5.46C17.7519 4.284 21.2799 3.696 24.9999 3.696C25.5279 3.696 26.2479 3.72 27.1599 3.768Z" fill="url(#paint0_linear_1_11)"/>
<defs>
<linearGradient id="paint0_linear_1_11" x1="12.5" y1="-1" x2="12.5" y2="44" gradientUnits="userSpaceOnUse">
<stop stop-color="#C850C0"/>
<stop offset="1" stop-color="#4158D0"/>
</linearGradient>
</defs>
</svg>
